<?xml version="1.0" encoding="UTF-8"?><svg id="Layer_2" xmlns="http://www.w3.org/2000/svg" viewBox="0 0 1098.43 227.89"><defs><style>.cls-1{fill:#fff;}.cls-2{fill:#d75441;}.cls-3{fill:#754e44;}.cls-4{fill:#924330;}.cls-5{fill:#e7725c;}.cls-6{fill:#9e4632;}.cls-7{fill:#e3604c;}</style></defs><g id="Layer_1-2"><g><path class="cls-3" d="M152.65,226.8c-4.98,2.13-10.73,1.09-14.65-2.64L14.61,106.86c-5.3-4.1-9.23-9.1-11.69-14.86C-2.92,78.32,.06,62.09,11.31,46.3c10.6-14.87,28.02-26.53,48.08-35.09C79.44,2.64,99.9-1.89,117.97,.75c19.18,2.79,32.97,11.87,38.81,25.55,1.32,3.09,2.2,6.42,2.61,9.9,.04,.24,.07,.48,.08,.72,.23,2.3,.25,4.67,.06,7.04l1.33,170.29c.04,5.48-3.18,10.41-8.22,12.56Z"/><path class="cls-7" d="M146.1,26.82c8.59,20.11-13.93,51.28-51.31,67.25-37.38,15.96-75.47,10.68-84.06-9.44C3.17,66.94,25.47,35.27,62.86,19.3c34.6-14.78,75.32-11.03,83.24,7.51Z"/><path class="cls-2" d="M75.52,89.67c-11.43-26.76-10.39-51.84-5.09-73.28-2.55,.88-5.08,1.84-7.58,2.91C25.47,35.27,3.17,66.94,10.72,84.63c7.46,17.47,37.19,23.75,69.38,14.64-1.63-3.1-3.17-6.29-4.58-9.59Z"/><path class="cls-6" d="M98.52,102.2c-26.62,11.37-53.55,13.26-72.62,6.81l116.39,110.65c2.12,2.01,5.23,2.58,7.92,1.43s4.47-3.84,4.45-6.79l-1.25-159.31c-8.67,18.06-28.53,35.96-54.89,47.22Z"/><path class="cls-3" d="M138.68,30.21c6.87,16.08-13.67,42.08-46.68,56.18-33.01,14.1-65.99,10.95-72.86-5.13-6.04-14.14,14.33-40.54,47.34-54.64,30.55-13.05,65.87-11.23,72.2,3.59Z"/><path class="cls-5" d="M129.17,34.12c5.31,12.43-12.71,33.44-40.87,45.47-28.16,12.03-55.8,10.51-61.11-1.92-4.67-10.93,13.22-32.25,41.38-44.28,26.06-11.13,55.71-10.73,60.6,.73Z"/><path class="cls-4" d="M84.67,107.26c-21.88,6.7-43.01,7.08-58.77,1.75l116.39,110.65c2.12,2.01,5.23,2.58,7.92,1.43s4.47-3.84,4.45-6.79l-.35-44.81c-19.5-9.97-49.91-30.26-69.63-62.22Z"/><path class="cls-7" d="M67.29,33.96c-27.41,12.12-44.69,32.95-40.1,43.71,4.37,10.23,23.87,13.06,46.34,7.03-6.69-17.94-7.94-35.05-6.25-50.74Z"/><path class="cls-3" d="M99.15,45.25c2.68,6.27-4.77,16.16-16.95,21.36-12.18,5.2-24.48,3.74-27.15-2.53-2.35-5.51,5.03-15.56,17.2-20.76,11.27-4.81,24.43-3.85,26.9,1.93Z"/><path class="cls-1" d="M90.75,49c1.56,3.66-4.13,8.68-11.23,11.71s-14.8,3.87-16.41,.09c-1.46-3.41,4.44-8.46,11.54-11.5,6.57-2.81,14.64-3.72,16.1-.31Z"/></g><g><path class="cls-2" d="M189.35,66.93h26.24v43.3h39.2v-43.3h26.08v110.22h-26.08v-44.61h-39.2v44.61h-26.24V66.93Z"/><path class="cls-2" d="M300.48,97.93s14.43-7.54,31.66-7.54c30.02,0,36.74,14.43,36.74,37.89v25.26c0,2.79,1.97,4.76,4.26,4.76,3.94,0,6.89-1.64,6.89-1.64l1.15,17.06s-8.2,5.08-18.86,5.08c-9.51,0-14.27-7.05-15.42-12.96,0,0-9.51,12.96-27.23,12.96-11.65,0-24.11-6.07-24.11-23.62,0-28.05,40.18-27.72,47.24-27.72,0-9.68-3.77-14.93-14.6-14.93-13.29,0-26.73,6.72-26.73,6.72l-.98-21.32Zm41.99,43.46c-11.48,.49-20.67,2.62-20.67,10.01,0,3.61,2.3,7.71,8.04,7.71,6.89,0,12.63-5.41,12.63-5.41v-12.3Z"/><path class="cls-2" d="M482.74,90.38c14.6,0,28.38,6.72,28.38,27.39v59.37h-26.24v-54.29c0-6.72-1.97-11.48-9.02-11.48s-12.14,4.1-12.63,4.43c0,.16-.16,2.46-.16,7.05v54.29h-26.24v-54.29c0-6.72-1.31-11.48-9.19-11.48-6.23,0-12.79,4.43-12.79,4.43v61.34h-26.24V92.02h14.93l4.59,7.05s11.64-8.69,26.41-8.69c17.55,0,22.31,8.69,22.31,8.69,0,0,10.99-8.69,25.91-8.69Z"/></g><g><path class="cls-4" d="M557.97,66.93h26.24v89.06h41.66l-1.15,21.16h-66.75V66.93Z"/><path class="cls-4" d="M672.8,90.38c31.82,0,42.81,19.35,42.81,43.96s-16.07,44.45-42.15,44.45c-30.01,0-42.32-19.19-42.32-44.45s15.25-43.96,41.66-43.96Zm.33,67.74c10.17,0,16.07-9.35,16.07-22.47,0-14.43-4.26-24.93-16.07-24.93-9.35,0-15.75,7.54-15.75,22.14s3.94,25.26,15.75,25.26Z"/><path class="cls-4" d="M766.7,90.38c15.58,0,23.62,4.76,23.62,4.76l-2.79,22.96s-7.54-5.08-18.37-5.08-19.85,6.89-19.85,21.32c0,16.4,11.32,21.32,20.67,21.32s18.21-6.4,18.21-6.4l2.62,22.96s-9.02,6.56-25.09,6.56c-14.6,0-42.48-6.72-42.48-44.45,0-26.41,18.04-43.96,43.46-43.96Z"/><path class="cls-4" d="M803.06,97.93s14.43-7.54,31.66-7.54c30.01,0,36.74,14.43,36.74,37.89v25.26c0,2.79,1.97,4.76,4.26,4.76,3.94,0,6.89-1.64,6.89-1.64l1.15,17.06s-8.2,5.08-18.86,5.08c-9.51,0-14.27-7.05-15.42-12.96,0,0-9.51,12.96-27.23,12.96-11.64,0-24.11-6.07-24.11-23.62,0-28.05,40.18-27.72,47.24-27.72,0-9.68-3.77-14.93-14.6-14.93-13.29,0-26.73,6.72-26.73,6.72l-.98-21.32Zm41.99,43.46c-11.48,.49-20.67,2.62-20.67,10.01,0,3.61,2.3,7.71,8.04,7.71,6.89,0,12.63-5.41,12.63-5.41v-12.3Z"/><path class="cls-4" d="M894.74,92.02v-15.42l25.75-6.4v21.81h21.16v20.01h-21.16v35.59c0,5.08,2.46,7.54,6.89,7.54,5.74,0,13.61-2.62,13.61-2.62l1.64,20.5s-10,5.74-24.6,5.74-23.62-9.51-23.62-26.57v-40.18h-13.45v-20.01h13.78Z"/><path class="cls-4" d="M989.53,90.38c31.82,0,42.81,19.35,42.81,43.96s-16.07,44.45-42.15,44.45c-30.01,0-42.32-19.19-42.32-44.45s15.25-43.96,41.66-43.96Zm.33,67.74c10.17,0,16.07-9.35,16.07-22.47,0-14.43-4.26-24.93-16.07-24.93-9.35,0-15.75,7.54-15.75,22.14s3.94,25.26,15.75,25.26Z"/><path class="cls-4" d="M1044.14,92.02h14.93l6.23,11.65c6.4-9.68,16.24-13.29,23.29-13.29s9.84,1.8,9.84,1.8l-1.31,22.47s-4.26-1.97-10.17-1.97c-9.35,0-16.57,6.56-16.57,6.56v57.9h-26.24V92.02Z"/></g></g></svg>