<svg width="500" height="500" version="1.1" viewBox="0 0 132.29 132.29" xmlns="http://www.w3.org/2000/svg">
 <path d="m6.2013 30.201c-3.4878-1.2191-6.1866-7.747-6.1866-14.964 0-6.3551 1.619-11.317 4.5695-14.006 1.336-1.2172 2.0381-1.2313 61.553-1.2313 59.169 0 60.224 0.020763 61.53 1.2104 1.6163 1.4726 3.6563 5.6017 4.1874 8.4759 0.21519 1.1645 0.33434 4.1302 0.26477 6.5906-0.16051 5.6765-1.3922 9.5809-3.8936 12.343l-1.688 1.8638-59.511 0.0883c-32.731 0.04855-60.103-0.11834-60.825-0.37088z" stroke-width=".46082"/>
 <path d="m5.9609 80.513c-2.6039-1.4083-4.0649-3.7418-5.2128-8.3252-0.90606-3.618-1.0027-9.2686-0.21558-12.606 0.74384-3.1542 2.6216-6.7173 4.2207-8.009 1.3201-1.0663 4.0835-1.1166 61.384-1.1166 57.552 0 60.059 0.04609 61.4 1.1295 1.804 1.4569 3.7494 5.5197 4.2915 8.9619 1.3786 8.7546-1.0957 17.752-5.4771 19.915-1.4798 0.73086-119.04 0.77976-120.39 0.05009z" stroke-width=".45982"/>
 <path d="m5.5673 131.67c-1.6853-0.87045-3.7769-4.4927-4.6485-8.0498-1.9392-7.9148-0.11026-17.49 3.9695-20.782 1.3198-1.065 4.0902-1.116 61.309-1.1289 53.409-0.012 60.066 0.09 61.208 0.93782 6.8086 5.0519 6.3988 25.257-0.58774 28.976-1.6097 0.85664-119.59 0.90261-121.25 0.0472z" stroke-width=".45959"/>
 <g fill="#f48c06" stroke="#fd7762">
  <g stroke-width=".62189">
   <path transform="scale(.26458)" d="m68.028 114.74-43.912-0.40167-2.7507-1.612c-9.0246-5.2888-16.229-19.117-19.558-37.539-1.5552-8.6078-1.5526-27.958 0.0050248-36.628 2.5998-14.471 7.6889-25.651 14.768-32.439 6.0079-5.7616-5.2435-5.4963 233.11-5.4963 207.67 0 220.84 0.12855 228.54 2.2319 3.7532 1.0241 8.0803 5.9685 12.255 14.004 7.2973 14.045 8.9656 22.616 8.4 43.155-0.66415 24.12-4.6197 36.417-15.864 49.316l-4.5374 5.2053-63.871 0.41308c-75.493 0.48824-284.11 0.36242-346.59-0.20902z"/>
   <path transform="scale(.26458)" d="m141.79 305.62c-104.29-0.4394-116.83-0.70414-120.49-2.5449-3.4025-1.711-8.747-7.3311-11.257-11.838-7.5139-13.489-11.206-36.162-9.1419-56.139 0.99614-9.6407 2.9425-16.296 7.4925-25.619 4.2849-8.7802 9.1429-14.683 12.959-15.745 7.5569-2.1037 16.881-2.1931 228.65-2.1931 211.8 0 221.09 0.0892 228.65 2.1947 4.5526 1.2673 10.875 9.934 15.098 20.695 3.988 10.164 5.3516 18.627 5.3516 33.215 0 21.106-5.4503 40.18-14.298 50.039-5.5003 6.1286-5.9248 6.2763-19.585 6.8142-6.5229 0.25682-45.162 0.62355-85.865 0.81494-40.703 0.1914-89.397 0.42885-108.21 0.52767-18.812 0.0988-77.021-6.3e-4 -129.35-0.22121z"/>
   <path transform="scale(.26458)" d="m82.4 499.04c-23.772-0.2948-47.355-0.77411-52.406-1.0651l-9.1847-0.52911-3.001-2.9559c-3.5803-3.5264-7.9915-10.741-10.694-17.489-11.049-27.595-6.6571-69.056 9.0316-85.252 3.2616-3.367 4.1961-3.967 7.1256-4.5742 9.6406-1.9982 28.788-2.1842 226.11-2.1958 226.66-0.0133 227.48 2e-3 233.32 4.4544 6.6694 5.087 12.579 17.995 15.534 33.931 1.4737 7.9469 1.5021 28.859 0.0504 37.156-2.6512 15.154-6.9794 25.221-13.801 32.097-3.9777 4.0097-4.6889 4.4687-7.4976 4.8396-8.4061 1.1099-69.823 1.6785-203.97 1.8885-81.063 0.12687-166.84-0.0105-190.61-0.30533z"/>
  </g>
  <path transform="scale(.26458)" d="m194.06 190.96v-0.24736l55.806 7e-5c30.693 4e-5 56.901 0.0164 58.238 0.0364l2.4323 0.0364v0.42182h-116.48z" stroke-width=".054968"/>
 </g>
</svg>
