<svg width="500" height="500" version="1.1" viewBox="0 0 132.29 132.29" xmlns="http://www.w3.org/2000/svg">
 <g>
  <path d="m6.2013 30.201c-3.4878-1.2191-6.1866-7.747-6.1866-14.964 0-6.3551 1.619-11.317 4.5695-14.006 1.336-1.2172 2.0381-1.2313 61.553-1.2313 59.169 0 60.224 0.020763 61.53 1.2104 1.6163 1.4726 3.6563 5.6017 4.1874 8.4759 0.21519 1.1645 0.33434 4.1302 0.26477 6.5906-0.16051 5.6765-1.3922 9.5809-3.8936 12.343l-1.688 1.8638-59.511 0.0883c-32.731 0.04855-60.103-0.11834-60.825-0.37088z" stroke-width=".46082"/>
  <path d="m5.9609 80.513c-2.6039-1.4083-4.0649-3.7418-5.2128-8.3252-0.90606-3.618-1.0027-9.2686-0.21558-12.606 0.74384-3.1542 2.6216-6.7173 4.2207-8.009 1.3201-1.0663 4.0835-1.1166 61.384-1.1166 57.552 0 60.059 0.04609 61.4 1.1295 1.804 1.4569 3.7494 5.5197 4.2915 8.9619 1.3786 8.7546-1.0957 17.752-5.4771 19.915-1.4798 0.73086-119.04 0.77976-120.39 0.05009z" stroke-width=".45982"/>
  <path d="m5.5673 131.67c-1.6853-0.87045-3.7769-4.4927-4.6485-8.0498-1.9392-7.9148-0.11026-17.49 3.9695-20.782 1.3198-1.065 4.0902-1.116 61.309-1.1289 53.409-0.012 60.066 0.09 61.208 0.93782 6.8086 5.0519 6.3988 25.257-0.58774 28.976-1.6097 0.85664-119.59 0.90261-121.25 0.0472z" stroke-width=".45959"/>
 </g>
</svg>
