<svg version="1.1" viewBox="0 0 212.6 212.6" xmlns="http://www.w3.org/2000/svg">
 <g fill="#3f3f3f">
  <path d="m53.587-4e-4 -0.4375 35.433h124.02v141.73h-124.02v35.433h159.45v-212.6h-159.01z" fill-rule="evenodd" stroke-width=".98"/>
  <path d="m-4e-4 124.02h88.583l-35.433 35.433h53.15l53.15-53.15-53.15-53.15h-53.15l35.433 35.433h-88.583v35.433z" stroke-width="5"/>
 </g>
 <path d="m53.282 194.88v-17.584h124.02v-142h-124.03l0.14934-14.61c0.08214-8.0353 0.21698-15.948 0.29965-17.584l0.1503-2.9748h158.6v212.34h-159.19z" fill="#f48c06" stroke="#fd7762" stroke-width=".26443"/>
 <path d="m71.131 141.6 17.715-17.717h-88.714v-35.169h88.714l-35.43-35.433h52.885l53.017 53.019-53.019 53.017h-52.883z" fill="#f48c06" stroke="#fd7762" stroke-width=".26443"/>
</svg>
